<svg xmlns="http://www.w3.org/2000/svg" viewBox="0 0 1280 640" fill="none">
  <defs>
    <linearGradient id="bg" x1="0%" y1="0%" x2="100%" y2="100%">
      <stop offset="0%" style="stop-color:#0E1F3B"/>
      <stop offset="50%" style="stop-color:#13294B"/>
      <stop offset="100%" style="stop-color:#1B3A6B"/>
    </linearGradient>
    <linearGradient id="claw" x1="0%" y1="0%" x2="100%" y2="100%">
      <stop offset="0%" style="stop-color:#E84A27"/>
      <stop offset="100%" style="stop-color:#FF6B47"/>
    </linearGradient>
  </defs>

  <!-- Background -->
  <rect width="1280" height="640" fill="url(#bg)"/>

  <!-- Subtle grid pattern -->
  <g opacity="0.03" stroke="#FFFFFF" stroke-width="1">
    <line x1="0" y1="80" x2="1280" y2="80"/>
    <line x1="0" y1="160" x2="1280" y2="160"/>
    <line x1="0" y1="240" x2="1280" y2="240"/>
    <line x1="0" y1="320" x2="1280" y2="320"/>
    <line x1="0" y1="400" x2="1280" y2="400"/>
    <line x1="0" y1="480" x2="1280" y2="480"/>
    <line x1="0" y1="560" x2="1280" y2="560"/>
    <line x1="160" y1="0" x2="160" y2="640"/>
    <line x1="320" y1="0" x2="320" y2="640"/>
    <line x1="480" y1="0" x2="480" y2="640"/>
    <line x1="640" y1="0" x2="640" y2="640"/>
    <line x1="800" y1="0" x2="800" y2="640"/>
    <line x1="960" y1="0" x2="960" y2="640"/>
    <line x1="1120" y1="0" x2="1120" y2="640"/>
  </g>

  <!-- Large claw marks (decorative, left side) -->
  <g transform="translate(80, 60) scale(1.8)" opacity="0.15">
    <path d="M30 10 Q35 60 20 170 Q18 185 25 190 Q32 185 35 170 Q50 60 45 10 Z" fill="#E84A27"/>
    <path d="M65 5 Q70 55 55 175 Q53 190 60 195 Q67 190 70 175 Q85 55 80 5 Z" fill="#E84A27"/>
    <path d="M100 10 Q105 60 90 170 Q88 185 95 190 Q102 185 105 170 Q120 60 115 10 Z" fill="#E84A27"/>
  </g>

  <!-- Title -->
  <text x="640" y="260" font-family="Georgia, 'Times New Roman', serif" font-size="96" font-weight="bold" fill="#FFFFFF" text-anchor="middle" letter-spacing="3">
    Illini<tspan fill="#E84A27">Claw</tspan>
  </text>

  <!-- Tagline -->
  <text x="640" y="330" font-family="'Helvetica Neue', Arial, sans-serif" font-size="28" fill="#8899BB" text-anchor="middle" letter-spacing="2">
    WhatsApp AI Teaching Assistant Blueprint
  </text>

  <!-- Accent line -->
  <rect x="520" y="355" width="240" height="3" rx="1.5" fill="#E84A27" opacity="0.7"/>

  <!-- Feature pills -->
  <g font-family="'Helvetica Neue', Arial, sans-serif" font-size="16" fill="#8899BB">
    <rect x="270" y="400" width="140" height="36" rx="18" fill="#1E3D6B" stroke="#2A4D7B" stroke-width="1"/>
    <text x="340" y="423" text-anchor="middle" fill="#AAC0DD">Socratic AI</text>

    <rect x="430" y="400" width="150" height="36" rx="18" fill="#1E3D6B" stroke="#2A4D7B" stroke-width="1"/>
    <text x="505" y="423" text-anchor="middle" fill="#AAC0DD">Drip Campaigns</text>

    <rect x="600" y="400" width="120" height="36" rx="18" fill="#1E3D6B" stroke="#2A4D7B" stroke-width="1"/>
    <text x="660" y="423" text-anchor="middle" fill="#AAC0DD">Guardrails</text>

    <rect x="740" y="400" width="150" height="36" rx="18" fill="#1E3D6B" stroke="#2A4D7B" stroke-width="1"/>
    <text x="815" y="423" text-anchor="middle" fill="#AAC0DD">Knowledge RAG</text>
  </g>

  <!-- Bottom bar -->
  <rect x="0" y="620" width="1280" height="20" fill="#E84A27" opacity="0.8"/>

  <!-- University of Illinois badge -->
  <text x="640" y="520" font-family="'Helvetica Neue', Arial, sans-serif" font-size="15" fill="#556B8A" text-anchor="middle" letter-spacing="3">
    UNIVERSITY OF ILLINOIS · GIES COLLEGE OF BUSINESS
  </text>
</svg>
