<svg xmlns="http://www.w3.org/2000/svg" viewBox="0 0 1280 640" fill="none">
  <defs>
    <linearGradient id="bg" x1="0%" y1="0%" x2="100%" y2="100%">
      <stop offset="0%" style="stop-color:#0E1F3B"/>
      <stop offset="50%" style="stop-color:#13294B"/>
      <stop offset="100%" style="stop-color:#1B3A6B"/>
    </linearGradient>
  </defs>

  <!-- Background -->
  <rect width="1280" height="640" fill="url(#bg)"/>

  <!-- Subtle grid pattern -->
  <g opacity="0.03" stroke="#FFFFFF" stroke-width="1">
    <line x1="0" y1="80" x2="1280" y2="80"/>
    <line x1="0" y1="160" x2="1280" y2="160"/>
    <line x1="0" y1="240" x2="1280" y2="240"/>
    <line x1="0" y1="320" x2="1280" y2="320"/>
    <line x1="0" y1="400" x2="1280" y2="400"/>
    <line x1="0" y1="480" x2="1280" y2="480"/>
    <line x1="0" y1="560" x2="1280" y2="560"/>
    <line x1="160" y1="0" x2="160" y2="640"/>
    <line x1="320" y1="0" x2="320" y2="640"/>
    <line x1="480" y1="0" x2="480" y2="640"/>
    <line x1="640" y1="0" x2="640" y2="640"/>
    <line x1="800" y1="0" x2="800" y2="640"/>
    <line x1="960" y1="0" x2="960" y2="640"/>
    <line x1="1120" y1="0" x2="1120" y2="640"/>
  </g>

  <!-- Large decorative claw creature (top-left, faded) -->
  <g transform="translate(120, 80) scale(2.5)" opacity="0.1">
    <circle cx="72" cy="100" r="44" fill="#E84A27"/>
    <circle cx="72" cy="65" r="28" fill="#E84A27"/>
    <circle cx="55" cy="50" r="12" fill="#E84A27"/>
    <circle cx="89" cy="50" r="12" fill="#E84A27"/>
    <path d="M10 30 C20 38 28 48 38 58" stroke="#E84A27" stroke-width="6" stroke-linecap="round" fill="none"/>
    <path d="M134 30 C124 38 116 48 106 58" stroke="#E84A27" stroke-width="6" stroke-linecap="round" fill="none"/>
    <path d="M35 120 C22 128 12 138 8 148" stroke="#E84A27" stroke-width="4" stroke-linecap="round" fill="none"/>
    <path d="M109 120 C122 128 132 138 136 148" stroke="#E84A27" stroke-width="4" stroke-linecap="round" fill="none"/>
  </g>

  <!-- Title -->
  <text x="640" y="260" font-family="Georgia, 'Times New Roman', serif" font-size="96" font-weight="bold" fill="#FFFFFF" text-anchor="middle" letter-spacing="3">
    Illini<tspan fill="#E84A27">Claw</tspan>
  </text>

  <!-- Tagline -->
  <text x="640" y="330" font-family="'Helvetica Neue', Arial, sans-serif" font-size="28" fill="#8899BB" text-anchor="middle" letter-spacing="2">
    WhatsApp AI Teaching Assistant Blueprint
  </text>

  <!-- Accent line -->
  <rect x="520" y="355" width="240" height="3" rx="1.5" fill="#E84A27" opacity="0.7"/>

  <!-- Feature pills -->
  <g font-family="'Helvetica Neue', Arial, sans-serif" font-size="16">
    <rect x="270" y="400" width="140" height="36" rx="18" fill="#1E3D6B" stroke="#2A4D7B" stroke-width="1"/>
    <text x="340" y="423" text-anchor="middle" fill="#AAC0DD">Socratic AI</text>

    <rect x="430" y="400" width="150" height="36" rx="18" fill="#1E3D6B" stroke="#2A4D7B" stroke-width="1"/>
    <text x="505" y="423" text-anchor="middle" fill="#AAC0DD">Drip Campaigns</text>

    <rect x="600" y="400" width="120" height="36" rx="18" fill="#1E3D6B" stroke="#2A4D7B" stroke-width="1"/>
    <text x="660" y="423" text-anchor="middle" fill="#AAC0DD">Guardrails</text>

    <rect x="740" y="400" width="150" height="36" rx="18" fill="#1E3D6B" stroke="#2A4D7B" stroke-width="1"/>
    <text x="815" y="423" text-anchor="middle" fill="#AAC0DD">Knowledge RAG</text>
  </g>

  <!-- Bottom bar -->
  <rect x="0" y="620" width="1280" height="20" fill="#E84A27" opacity="0.8"/>

  <!-- Powered by + University -->
  <text x="640" y="510" font-family="'Helvetica Neue', Arial, sans-serif" font-size="16" fill="#667B9A" text-anchor="middle" letter-spacing="1">
    Powered by OpenClaw
  </text>
  <text x="640" y="545" font-family="'Helvetica Neue', Arial, sans-serif" font-size="14" fill="#556B8A" text-anchor="middle" letter-spacing="3">
    UNIVERSITY OF ILLINOIS · GIES COLLEGE OF BUSINESS
  </text>
</svg>
